<svg width="1200" height="630" viewBox="0 0 1200 630" fill="none" xmlns="http://www.w3.org/2000/svg">
  <defs>
    <linearGradient id="bg" x1="132" y1="24" x2="1056" y2="630" gradientUnits="userSpaceOnUse">
      <stop stop-color="#FFF6E5"/>
      <stop offset="1" stop-color="#F1E5D4"/>
    </linearGradient>
    <linearGradient id="accent" x1="744" y1="104" x2="1004" y2="402" gradientUnits="userSpaceOnUse">
      <stop stop-color="#F7894A"/>
      <stop offset="1" stop-color="#4B91F6"/>
    </linearGradient>
  </defs>

  <rect width="1200" height="630" rx="36" fill="url(#bg)"/>
  <circle cx="1036" cy="92" r="124" fill="#F7894A" fill-opacity="0.15"/>
  <circle cx="112" cy="542" r="166" fill="#4B91F6" fill-opacity="0.10"/>

  <rect x="56" y="52" width="1088" height="526" rx="32" fill="#FFFFFF" fill-opacity="0.56" stroke="#111216" stroke-opacity="0.08"/>

  <g>
    <text x="98" y="134" fill="#5F6068" font-family="Avenir Next, Segoe UI, sans-serif" font-size="22" letter-spacing="6">SUBTITLE-FIRST EDITING</text>
    <text x="96" y="238" fill="#111216" font-family="Avenir Next, Segoe UI, sans-serif" font-size="96" font-weight="700">ClipScript</text>
    <text x="98" y="304" fill="#111216" font-family="Avenir Next, Segoe UI, sans-serif" font-size="36" font-weight="500">Turn subtitles into short-form highlight clips.</text>
    <text x="98" y="362" fill="#5F6068" font-family="Avenir Next, Segoe UI, sans-serif" font-size="28">Upload an .srt file, get hooks, captions, voiceover angles,</text>
    <text x="98" y="401" fill="#5F6068" font-family="Avenir Next, Segoe UI, sans-serif" font-size="28">and editor-ready clip plans for Shorts, Reels, and TikTok.</text>
  </g>

  <g>
    <rect x="94" y="454" width="184" height="54" rx="27" fill="#111216"/>
    <text x="130" y="488" fill="#FAF6EF" font-family="Avenir Next, Segoe UI, sans-serif" font-size="22" font-weight="600">OpenAI-compatible</text>

    <rect x="294" y="454" width="110" height="54" rx="27" fill="#FFFFFF" stroke="#111216" stroke-opacity="0.12"/>
    <text x="331" y="488" fill="#111216" font-family="Avenir Next, Segoe UI, sans-serif" font-size="22" font-weight="600">ffmpeg</text>

    <rect x="422" y="454" width="194" height="54" rx="27" fill="#FFFFFF" stroke="#111216" stroke-opacity="0.12"/>
    <text x="457" y="488" fill="#111216" font-family="Avenir Next, Segoe UI, sans-serif" font-size="22" font-weight="600">Shorts / Reels / TikTok</text>
  </g>

  <g>
    <rect x="724" y="112" width="372" height="352" rx="34" fill="#111216"/>
    <rect x="756" y="144" width="308" height="288" rx="24" fill="#FAF6EF"/>
    <rect x="790" y="182" width="180" height="22" rx="11" fill="#111216"/>
    <rect x="790" y="228" width="126" height="18" rx="9" fill="#4B91F6"/>
    <rect x="790" y="264" width="98" height="18" rx="9" fill="#F7894A"/>
    <rect x="790" y="316" width="188" height="18" rx="9" fill="#111216"/>
    <path d="M955 305L1018 266V357L955 318V305Z" fill="#111216"/>
    <circle cx="1036" cy="168" r="24" fill="url(#accent)"/>
    <path d="M851 387L918 354L987 387" stroke="#111216" stroke-width="16" stroke-linecap="round" stroke-linejoin="round"/>
  </g>
</svg>
